# xmcd
#
# Track frame offsets: 
#        150
#        16672
#        30675
#        42197
#        55222
#        71392
#        87567
#        100270
#        116175
#        128877
#        141532
#        154857
#        168150
#        184850
#        196372
#        209595
#
# Disc length: 3003 seconds
#
# Revision: 2
# Processed by: cddbd v1.5.1PL0 Copyright (c) Steve Scherf et al.
# Submitted via: ExactAudioCopy v0.95a5
#
DISCID=e60bb910
DTITLE=Barbara Mandrell - Standing Room Only - Double Play (2 LP's On 
DTITLE=1 CD)
DYEAR=1900
DGENRE=Country
TTITLE0=I Was Country When Country Wasn't Cool (Live Version)
TTITLE1=Standing Room Only
TTITLE2=Happy Birthday Dear Heartache
TTITLE3='Till You're Gone
TTITLE4=Operator, Long Distance Please
TTITLE5=Crossword Puzzle
TTITLE6=This Is Not Another Cheatin' Song
TTITLE7=Bedroom Reunion
TTITLE8=Love Is Thin Ice
TTITLE9=How Long Does It Take
TTITLE10=Mental Revenge
TTITLE11=Hold Me
TTITLE12=The Best Of Strangers
TTITLE13=The Beginning Of The End
TTITLE14=Love The Second Time Around
TTITLE15=After The Lovin'
EXTD=
EXTT0=
EXTT1=
EXTT2=
EXTT3=
EXTT4=
EXTT5=
EXTT6=
EXTT7=
EXTT8=
EXTT9=
EXTT10=
EXTT11=
EXTT12=
EXTT13=
EXTT14=
EXTT15=
PLAYORDER=
